<svg width="16" height="16" viewBox="0 0 16 16" xmlns="http://www.w3.org/2000/svg" fill="#fff">
  <path d="M2.00195 4c1.10457 0 2.00001-.89543 2.00001-2s-.89544-2-2.00001-2-2 .89543-2 2 .89543 2 2 2zM13.498 3.99608c.8285 0 1.5-.67157 1.5-1.49999 0-.82843-.6715-1.5-1.5-1.5-.8284 0-1.5.67157-1.5 1.5 0 .82842.6716 1.49999 1.5 1.49999zM2.49804 14.9961c.82843 0 1.5-.6716 1.5-1.5s-.67157-1.5-1.5-1.5c-.82842 0-1.5.6716-1.5 1.5s.67158 1.5 1.5 1.5z"/>
  <path fill-rule="evenodd" clip-rule="evenodd" d="M8.00196 0l3.00024 4.9994 3.9998 3.00022-3.9998 3.00018-3.00024 4.9994-3.00021-4.9994-3.9998-3.00018 3.9998-3.00022L8.00196 0z"/>
</svg>