<?xml version="1.0" standalone="no"?>
<!DOCTYPE svg PUBLIC "-//W3C//DTD SVG 20010904//EN"
 "http://www.w3.org/TR/2001/REC-SVG-20010904/DTD/svg10.dtd">
<svg version="1.0" xmlns="http://www.w3.org/2000/svg"
 width="512.000000pt" height="512.000000pt" viewBox="0 0 512.000000 512.000000"
 preserveAspectRatio="xMidYMid meet">
<metadata>
Created by potrace 1.16, written by Peter Selinger 2001-2019
</metadata>
<g transform="translate(0.000000,512.000000) scale(0.100000,-0.100000)"
fill="rgb(224, 214, 194)" stroke="none">
<path d="M2615 4490 c-1265 -345 -2324 -636 -2352 -645 -69 -21 -105 -66 -110
-138 -4 -44 0 -58 22 -92 17 -25 296 -261 727 -615 384 -316 711 -584 725
-596 l26 -20 -137 -410 c-75 -226 -136 -425 -136 -443 0 -74 77 -151 151 -151
18 0 217 61 442 136 l409 136 22 -26 c482 -593 1180 -1430 1211 -1450 34 -23
48 -27 93 -23 62 4 100 28 124 78 9 19 303 1085 653 2369 709 2600 663 2407
592 2478 -72 72 110 115 -2462 -588z m1650 111 c-11 -10 -561 -456 -1223 -990
-765 -618 -1207 -969 -1215 -964 -6 4 -277 225 -601 492 -342 282 -583 487
-575 490 25 8 3614 989 3624 990 5 1 1 -7 -10 -18z m-136 -2121 c-269 -987
-493 -1806 -497 -1819 -7 -21 -57 35 -496 569 -269 326 -489 598 -490 604 -1
11 1965 2449 1970 2443 2 -1 -217 -810 -487 -1797z m-352 1263 c-79 -98 -433
-536 -786 -973 l-642 -795 -283 -96 -284 -97 95 282 94 281 972 787 c535 432
973 787 975 787 1 1 -62 -79 -141 -176z"/>
<path d="M909 1121 c-45 -29 -223 -206 -253 -251 -10 -16 -16 -46 -16 -87 0
-58 3 -67 33 -99 26 -29 42 -37 79 -41 94 -11 111 -2 244 129 132 129 154 162
154 230 0 123 -133 189 -241 119z"/>
<path d="M323 510 c-40 -9 -87 -47 -194 -157 -123 -126 -129 -136 -129 -202 0
-97 54 -151 151 -151 70 0 95 17 241 167 83 86 109 119 118 152 31 117 -67
218 -187 191z"/>
</g>
</svg>
