<?xml version="1.0" standalone="no"?>
<!DOCTYPE svg PUBLIC "-//W3C//DTD SVG 20010904//EN"
 "http://www.w3.org/TR/2001/REC-SVG-20010904/DTD/svg10.dtd">
<svg version="1.0" xmlns="http://www.w3.org/2000/svg"
 width="512.000000pt" height="512.000000pt" viewBox="0 0 512.000000 512.000000"
 preserveAspectRatio="xMidYMid meet">
<metadata>
Created by potrace 1.16, written by Peter Selinger 2001-2019
</metadata>
<g transform="translate(0.000000,512.000000) scale(0.100000,-0.100000)"
fill="rgb(224, 214, 194)" stroke="none">
<path d="M2210 4945 c-626 -76 -1172 -335 -1582 -751 -175 -178 -289 -331
-396 -534 -291 -551 -311 -1216 -54 -1785 83 -185 189 -352 327 -515 85 -100
95 -133 96 -299 0 -240 -71 -418 -256 -637 -38 -45 -40 -50 -40 -116 0 -69 0
-70 42 -109 l42 -39 106 0 c341 0 722 140 999 367 32 26 69 57 81 67 24 19 25
19 147 -18 269 -81 520 -116 828 -116 470 0 851 86 1255 285 505 248 887 619
1110 1080 76 156 117 269 155 430 38 160 50 269 50 455 0 328 -60 587 -205
887 -222 456 -607 831 -1110 1078 -302 149 -580 230 -921 270 -157 18 -523 18
-674 0z m665 -311 c597 -76 1129 -350 1492 -769 225 -260 365 -546 424 -872
31 -165 31 -401 0 -566 -106 -576 -483 -1064 -1061 -1374 -350 -188 -757 -286
-1185 -286 -300 0 -509 35 -808 133 -219 71 -225 70 -349 -49 -104 -99 -218
-180 -333 -239 -83 -41 -254 -106 -262 -99 -1 2 13 43 32 91 90 221 112 505
59 731 -20 84 -28 98 -114 195 -332 376 -500 857 -460 1316 49 562 364 1063
885 1410 340 227 766 367 1215 398 95 6 340 -4 465 -20z"/>
<path d="M1203 3140 c-188 -67 -303 -231 -303 -430 0 -259 191 -450 450 -450
259 0 450 191 450 450 0 201 -117 365 -307 431 -75 25 -216 25 -290 -1z m221
-309 c43 -29 66 -70 66 -121 0 -80 -60 -140 -140 -140 -80 0 -140 60 -140 140
0 80 60 140 140 140 27 0 56 -8 74 -19z"/>
<path d="M2403 3140 c-188 -67 -303 -231 -303 -430 0 -259 191 -450 450 -450
259 0 450 191 450 450 0 201 -117 365 -307 431 -75 25 -216 25 -290 -1z m221
-309 c43 -29 66 -70 66 -121 0 -51 -23 -92 -66 -121 -18 -11 -47 -19 -74 -19
-80 0 -140 60 -140 140 0 80 60 140 140 140 27 0 56 -8 74 -19z"/>
<path d="M3623 3140 c-188 -67 -303 -231 -303 -430 0 -259 191 -450 450 -450
259 0 450 191 450 450 0 201 -117 365 -307 431 -75 25 -216 25 -290 -1z m221
-309 c43 -29 66 -70 66 -121 0 -51 -23 -92 -66 -121 -61 -40 -152 -18 -195 47
-40 61 -18 152 47 195 18 11 47 19 74 19 27 0 56 -8 74 -19z"/>
</g>
</svg>
