<?xml version="1.0" standalone="no"?>
<!DOCTYPE svg PUBLIC "-//W3C//DTD SVG 20010904//EN"
 "http://www.w3.org/TR/2001/REC-SVG-20010904/DTD/svg10.dtd">
<svg version="1.0" xmlns="http://www.w3.org/2000/svg"
 width="512.000000pt" height="512.000000pt" viewBox="0 0 512.000000 512.000000"
 preserveAspectRatio="xMidYMid meet">
<metadata>
Created by potrace 1.16, written by Peter Selinger 2001-2019
</metadata>
<g transform="translate(0.000000,512.000000) scale(0.100000,-0.100000)"
fill="rgb(224, 214, 194)" stroke="none">
<path d="M2320 5113 c-501 -51 -974 -244 -1370 -559 -103 -82 -303 -281 -386
-384 -249 -309 -423 -668 -508 -1050 -84 -377 -75 -825 24 -1208 59 -229 134
-412 285 -687 l27 -50 -197 -493 c-188 -472 -197 -496 -193 -549 4 -46 10 -60
41 -90 30 -31 44 -37 91 -41 53 -4 76 4 548 193 l493 197 50 -27 c273 -150
458 -226 687 -285 383 -99 829 -107 1208 -24 377 83 739 258 1050 508 112 90
325 308 411 421 274 360 433 724 510 1170 27 154 37 509 19 681 -121 1195
-1069 2147 -2262 2274 -90 9 -446 12 -528 3z m560 -319 c732 -103 1380 -574
1705 -1239 158 -324 228 -629 228 -985 0 -268 -31 -461 -113 -711 -319 -972
-1259 -1616 -2259 -1549 -235 16 -423 53 -632 126 -125 43 -350 152 -473 228
-128 80 -116 82 -496 -70 -173 -69 -336 -135 -362 -145 l-48 -19 19 48 c10 26
76 189 145 362 152 380 150 368 70 496 -578 927 -445 2093 322 2834 399 386
889 602 1459 644 87 6 326 -4 435 -20z"/>
<path d="M2423 4500 c-188 -67 -303 -231 -303 -430 0 -259 191 -450 450 -450
258 0 451 193 451 450 0 200 -118 365 -308 431 -75 25 -216 25 -290 -1z m224
-310 c87 -52 83 -198 -6 -245 -97 -50 -211 18 -211 125 0 110 122 178 217 120z"/>
<path d="M1883 3299 c-63 -40 -64 -50 -61 -441 3 -335 4 -354 23 -380 37 -49
65 -58 174 -58 l101 0 0 -294 0 -293 -100 -6 c-113 -6 -155 -24 -184 -79 -16
-30 -17 -67 -14 -390 l3 -358 38 -37 37 -38 656 -3 c727 -3 702 -5 744 63 19
31 20 49 20 385 0 331 -1 355 -19 384 -32 51 -73 68 -177 74 l-93 5 -3 691
c-3 671 -4 692 -23 724 -11 18 -34 42 -51 53 -30 18 -55 19 -535 19 -488 0
-505 -1 -536 -21z m837 -985 l0 -707 44 -43 43 -44 107 0 106 0 0 -145 0 -145
-445 0 -445 0 0 145 0 145 96 0 c110 0 144 14 179 72 19 32 20 51 20 528 0
491 0 495 -22 530 -36 57 -67 70 -177 70 l-96 0 0 150 0 150 295 0 295 0 0
-706z"/>
</g>
</svg>
